<?xml version="1.0" encoding="UTF-8"?>
<svg version="1.1" xmlns="http://www.w3.org/2000/svg" width="1536" height="256">
<path d="M0 0 C58.61352657 0 58.61352657 0 67 7 C73.42270534 14.50238426 75.49809017 21.8999952 75.30859375 31.67578125 C74.6893653 38.34620419 72.72352292 43.82670002 67.6875 48.375 C64.31852095 50.94184118 60.73723726 53.01697615 57 55 C57.721875 55.350625 58.44375 55.70125 59.1875 56.0625 C65.53637622 60.43617028 68.01962036 66.87100731 70.33203125 73.92578125 C70.6135051 74.75458298 70.89497894 75.5833847 71.1849823 76.43730164 C71.77258961 78.17421522 72.35466119 79.91301065 72.93139648 81.65356445 C73.81692465 84.32585241 74.71843352 86.99232201 75.62304688 89.65820312 C76.19363062 91.35125195 76.76332439 93.04460104 77.33203125 94.73828125 C77.60070511 95.53720291 77.86937897 96.33612457 78.14619446 97.15925598 C80 102.76357362 80 102.76357362 80 105 C72.74 105 65.48 105 58 105 C53.51919866 93.79799666 53.51919866 93.79799666 52 88.984375 C51.505 87.44910156 51.505 87.44910156 51 85.8828125 C50.32880544 83.78008578 49.66219644 81.67589025 49 79.5703125 C46.52535704 71.72897995 46.52535704 71.72897995 42 65 C34.67478504 62.27779291 34.67478504 62.27779291 21 62 C21 76.19 21 90.38 21 105 C14.07 105 7.14 105 0 105 C0 70.35 0 35.7 0 0 Z M21 18 C21 26.91 21 35.82 21 45 C26.2284375 45.0928125 26.2284375 45.0928125 31.5625 45.1875 C32.64732666 45.21481201 33.73215332 45.24212402 34.84985352 45.27026367 C40.70347237 45.32034062 44.8656211 44.88808813 50 42 C53.12690484 38.63256402 54.25532458 36.00884168 54.4375 31.5 C54.22212842 27.37320272 53.44411879 24.4217663 51 21 C45.30878378 16.98769256 39.28328697 17.660748 32.625 17.8125 C28.78875 17.874375 24.9525 17.93625 21 18 Z " fill="#000000" transform="translate(26,80)"/>
<path d="M0 0 C6.93 0 13.86 0 21 0 C21.33 12.87 21.66 25.74 22 39 C24.31 37.02 26.62 35.04 29 33 C36.96554038 28.7330684 46.34315966 28.65278834 55.05078125 30.7265625 C65.14391684 34.49425803 69.61446087 40.39553268 74 50 C78.94787327 64.13678077 78.40964811 81.98771762 71.9375 95.5 C67.77795747 103.12152202 62.74652993 107.73137598 54.6875 110.9375 C46.20981409 113.3195374 36.92233333 112.97682345 29 109 C26.12016337 107.06795771 23.58116981 105.16233962 22 102 C21.67 104.64 21.34 107.28 21 110 C14.07 110 7.14 110 0 110 C0 73.7 0 37.4 0 0 Z M24.6875 53.4375 C19.81827767 60.83150429 19.01666348 70.26945264 20.6875 78.875 C22.28087356 84.58808284 24.3290353 88.69664754 29.125 92.4375 C33.60202662 94.6711993 38.11537935 94.66204776 43 94 C47.72570165 92.33725312 50.31398165 90.22088598 53 86 C56.04267223 77.1784395 56.94207851 65.57851932 53.375 56.75 C50.75723465 51.94300028 47.24812019 48.7493734 42 47 C34.42873444 46.3690612 30.07920165 47.75435501 24.6875 53.4375 Z " fill="#000000" transform="translate(306,75)"/>
<path d="M0 0 C6.6 0 13.2 0 20 0 C20 36.3 20 72.6 20 110 C13.4 110 6.8 110 0 110 C-0.495 105.545 -0.495 105.545 -1 101 C-1.43570313 101.47050781 -1.87140625 101.94101563 -2.3203125 102.42578125 C-8.78390514 109.18317355 -14.73692478 112.046271 -24.125 112.3125 C-32.39360584 112.21220694 -40.36122554 109.6640707 -46.4375 103.89453125 C-54.59449173 94.00417878 -56.35119318 83.52229516 -56.3125 71.125 C-56.32861328 70.10019531 -56.34472656 69.07539063 -56.36132812 68.01953125 C-56.36787458 57.7154056 -54.12024098 46.71777414 -47.05859375 38.83203125 C-38.64400556 30.79792879 -31.16217626 29.39480403 -19.66796875 29.6484375 C-11.2414635 30.45608976 -6.98050012 33.01949988 -1 39 C-0.67 26.13 -0.34 13.26 0 0 Z M-31.3125 53.3125 C-34.75068146 58.78812232 -35.36420564 64.58911247 -35.3125 70.9375 C-35.30831055 71.64044189 -35.30412109 72.34338379 -35.29980469 73.06762695 C-35.13452249 80.64511228 -33.49981343 86.50018657 -28 92 C-23.49608722 94.78182848 -18.12258179 94.64032272 -13 94 C-7.68327497 92.22775832 -4.51888121 88.94447052 -2 84 C0.81074156 75.34291599 0.8422825 66.65531223 -2 58 C-4.87860884 52.73909419 -8.22163341 48.9261222 -14 47 C-21.57696247 46.36858646 -25.79442192 47.79442192 -31.3125 53.3125 Z " fill="#000000" transform="translate(264,75)"/>
<path d="M0 0 C6.93 0 13.86 0 21 0 C21.33 19.8 21.66 39.6 22 60 C26.62 54.06 31.24 48.12 36 42 C43.7 32.3 43.7 32.3 45 31 C46.56172745 30.91314397 48.12729344 30.89297781 49.69140625 30.90234375 C50.63564453 30.90556641 51.57988281 30.90878906 52.55273438 30.91210938 C53.54595703 30.92048828 54.53917969 30.92886719 55.5625 30.9375 C56.55958984 30.94201172 57.55667969 30.94652344 58.58398438 30.95117188 C61.05604849 30.96299993 63.52799518 30.97948151 66 31 C65.1365758 35.20729211 62.98494488 37.86018262 60.3125 41.125 C59.32220526 42.35880434 58.33266149 43.59321169 57.34375 44.828125 C56.81007813 45.49134766 56.27640625 46.15457031 55.7265625 46.83789062 C52.54787436 50.8184424 49.43424479 54.84974984 46.3125 58.875 C45.1003552 60.43496949 43.88812356 61.9948715 42.67578125 63.5546875 C41.78380379 64.70308587 40.89185609 65.85150737 40 67 C43.94375288 73.0028571 48.02145651 78.88233131 52.25 84.6875 C53.38425835 86.25380215 54.51837106 87.82020978 55.65234375 89.38671875 C57.28943631 91.64450097 58.92796213 93.90118025 60.57080078 96.15478516 C61.98866175 98.10035148 63.40102432 100.04979906 64.8125 102 C65.45203613 102.87144653 65.45203613 102.87144653 66.10449219 103.76049805 C69 107.77306996 69 107.77306996 69 110 C61.39566945 111.28836566 53.48317132 112.28600465 46 110 C39.19620935 105.01779403 35.27706011 97.07858433 31 90 C28.03 86.04 25.06 82.08 22 78 C21.67 88.56 21.34 99.12 21 110 C14.07 110 7.14 110 0 110 C0 73.7 0 37.4 0 0 Z " fill="#000000" transform="translate(566,75)"/>
<path d="M0 0 C8.25596658 5.5461 11.76952875 12.47242671 14 22 C14.22473655 25.31849443 14.19072239 28.61346368 14.125 31.9375 C14.11597656 32.81212891 14.10695313 33.68675781 14.09765625 34.58789062 C14.0742957 36.72538064 14.03843247 38.86272786 14 41 C11.53838983 42.23080509 9.93503007 42.12043977 7.18310547 42.11352539 C6.18221893 42.11344986 5.1813324 42.11337433 4.15011597 42.11329651 C3.06674957 42.10813522 1.98338318 42.10297394 0.8671875 42.09765625 C-0.23978485 42.0962413 -1.3467572 42.09482635 -2.48727417 42.09336853 C-6.03320993 42.08775772 -9.57908323 42.07520337 -13.125 42.0625 C-15.52473867 42.05748639 -17.92447833 42.05292325 -20.32421875 42.04882812 C-26.21616725 42.03778478 -32.10807916 42.0210361 -38 42 C-37.54636829 43.58468677 -37.08688548 45.16769924 -36.625 46.75 C-36.36976563 47.63171875 -36.11453125 48.5134375 -35.8515625 49.421875 C-35.07007713 51.7878399 -34.28408495 53.86622315 -33 56 C-30.59047977 57.24714403 -30.59047977 57.24714403 -28 58 C-27.01 58.33 -26.02 58.66 -25 59 C-17.54600582 59.66475679 -12.02508513 59.64433645 -6 55 C-3.6090093 52.41139607 -3.6090093 52.41139607 -2 50 C2.2829452 50.5479083 4.85135641 52.02432804 8.3125 54.5625 C9.63701172 55.52349609 9.63701172 55.52349609 10.98828125 56.50390625 C11.65214844 56.99761719 12.31601562 57.49132812 13 58 C12.16448795 64.76764758 7.43243468 69.28739158 2.23046875 73.3984375 C-7.9795079 79.75875083 -21.88759129 79.29021242 -33.25 77 C-41.75658168 74.5351549 -48.71572799 69.60778997 -53.5 62.125 C-54.37835424 60.43937221 -55.21467213 58.73092673 -56 57 C-56.33773438 56.2884375 -56.67546875 55.576875 -57.0234375 54.84375 C-61.07122285 44.29722669 -60.59994832 28.93641134 -57.0390625 18.3203125 C-52.58890963 8.38275309 -46.09188279 1.96230235 -36.11328125 -2.23828125 C-25.26805421 -6.14737417 -10.00828819 -5.77008452 0 0 Z M-34 17 C-36.83407613 22.24913008 -36.83407613 22.24913008 -38 28 C-27.44 28 -16.88 28 -6 28 C-6.86356531 19.99679266 -6.86356531 19.99679266 -11 14 C-17.9585845 9.53976192 -28.7770477 10.3949294 -34 17 Z " fill="#000000" transform="translate(455,109)"/>
<path d="M0 0 C6.6 0 13.2 0 20 0 C20.01458252 1.56886963 20.02916504 3.13773926 20.04418945 4.75415039 C20.10227673 10.58950287 20.17950995 16.4244737 20.26245117 22.25952148 C20.29565129 24.78224481 20.32369842 27.30504154 20.34643555 29.82788086 C20.38007096 33.45979006 20.43239367 37.09102957 20.48828125 40.72265625 C20.49467117 41.84583755 20.5010611 42.96901886 20.50764465 44.12623596 C20.61993326 50.14266025 20.9547411 54.74343675 24 60 C28.44621713 62.96414475 32.78175012 62.52717312 38 62 C40.97984167 60.66829691 40.97984167 60.66829691 43 59 C43.66 59 44.32 59 45 59 C47.87456782 52.0041806 48.46586659 45.69825364 48.51171875 38.18359375 C48.52966995 37.08652603 48.54762115 35.98945831 48.56611633 34.85914612 C48.61991881 31.38530215 48.65401883 27.91159322 48.6875 24.4375 C48.72069956 22.06964279 48.75519163 19.70180333 48.79101562 17.33398438 C48.87562815 11.55608748 48.94258252 5.77822854 49 0 C55.93 0 62.86 0 70 0 C70 26.07 70 52.14 70 79 C63.4 79 56.8 79 50 79 C49.67 75.7 49.34 72.4 49 69 C47.96875 70.258125 46.9375 71.51625 45.875 72.8125 C41.23379197 78.11941666 36.31770244 80.67507883 29.30078125 81.203125 C20.93755662 81.33431284 14.06563664 80.54202389 7.1875 75.5 C1.35375372 69.81343851 -0.20864367 62.05718327 -0.45410156 54.15161133 C-0.45347691 51.62832933 -0.43139654 49.10498391 -0.390625 46.58203125 C-0.38314395 45.23012641 -0.37745986 43.87821056 -0.37347412 42.52629089 C-0.3583638 39.00634638 -0.31921364 35.48708568 -0.2746582 31.96740723 C-0.23338534 28.36052698 -0.21539555 24.75353382 -0.1953125 21.14648438 C-0.15270052 14.0973534 -0.08247543 7.04879393 0 0 Z " fill="#000000" transform="translate(120,106)"/>
<path d="M0 0 C5.79832741 -0.04978091 11.59652784 -0.08589861 17.39501953 -0.10986328 C19.3637916 -0.1198636 21.33254905 -0.13346823 23.30126953 -0.15087891 C26.14619581 -0.1753917 28.99092415 -0.18654306 31.8359375 -0.1953125 C32.70302338 -0.20563507 33.57010925 -0.21595764 34.46347046 -0.22659302 C44.22677641 -0.22834857 54.44535033 0.98073825 61.9453125 7.7578125 C69.1166774 15.40926877 70.61805269 22.17760739 70.33984375 32.59375 C69.64258021 39.58241442 67.30366613 44.09660018 62.1875 48.875 C58.65785338 51.72917954 55.26616303 53.48906726 51 55 C51.59167969 55.43828125 52.18335938 55.8765625 52.79296875 56.328125 C53.97826172 57.27945313 53.97826172 57.27945313 55.1875 58.25 C55.96480469 58.85328125 56.74210938 59.4565625 57.54296875 60.078125 C64.28313035 68.09345231 66.70845825 79.80156005 69.8125 89.625 C70.22289678 90.9024757 70.63370232 92.17982016 71.04492188 93.45703125 C74 102.72455357 74 102.72455357 74 105 C69.38 105 64.76 105 60 105 C59.48614746 103.46460571 59.48614746 103.46460571 58.96191406 101.89819336 C57.67962984 98.07323849 56.38762446 94.25162526 55.09277344 90.4309082 C54.53545973 88.78205395 53.9807277 87.13232461 53.42871094 85.48168945 C52.6312559 83.09868075 51.82433133 80.71905427 51.015625 78.33984375 C50.77378479 77.61039047 50.53194458 76.88093719 50.28277588 76.12937927 C48.37152463 70.55208888 46.3331026 64.80759546 41.5546875 61.10546875 C36.12868066 59.41804025 30.77580635 59.42499189 25.125 59.3125 C19.123125 59.1578125 19.123125 59.1578125 13 59 C13 74.18 13 89.36 13 105 C8.38 105 3.76 105 -1 105 C-1.02314123 91.75266738 -1.04092421 78.50533954 -1.05181217 65.25799084 C-1.05703708 59.10712662 -1.06412767 52.9562762 -1.07543945 46.80541992 C-1.08628218 40.87267737 -1.0922798 34.93994812 -1.09487724 29.00719643 C-1.09672898 26.74052025 -1.10034481 24.47384483 -1.10573006 22.2071743 C-1.11295882 19.03938584 -1.11399016 15.87165276 -1.11352539 12.70385742 C-1.11712067 11.76086792 -1.12071594 10.81787842 -1.12442017 9.84631348 C-1.1230455 8.98394577 -1.12167084 8.12157806 -1.12025452 7.233078 C-1.12117631 6.48366031 -1.1220981 5.73424261 -1.12304783 4.96211529 C-1 3 -1 3 0 0 Z M13 12 C13 23.88 13 35.76 13 48 C18.878125 48.061875 18.878125 48.061875 24.875 48.125 C26.08913574 48.14320801 27.30327148 48.16141602 28.55419922 48.18017578 C40.67918907 48.40857308 40.67918907 48.40857308 51.5 43.6875 C56.39440402 38.42601567 56.50084757 33.18349415 56.375 26.23828125 C55.84256353 21.6404705 54.48900038 18.11326188 51 15 C45.93120297 12.45182758 42.300409 11.63526462 36.53515625 11.70703125 C35.29386963 11.71452393 34.05258301 11.7220166 32.77368164 11.72973633 C31.2189917 11.75704834 29.66430176 11.78436035 28.0625 11.8125 C20.6065625 11.9053125 20.6065625 11.9053125 13 12 Z " fill="#000000" transform="translate(650,80)"/>
<path d="M0 0 C7.8667905 6.7844094 7.8667905 6.7844094 9.25390625 10.9375 C9.2421875 12.91796875 9.2421875 12.91796875 8.25390625 14.9375 C5.671875 17.11328125 5.671875 17.11328125 2.44140625 19.25 C1.38308594 19.96800781 0.32476563 20.68601563 -0.765625 21.42578125 C-3.74609375 22.9375 -3.74609375 22.9375 -6.00390625 22.8515625 C-8.86314913 21.35142162 -10.05278738 18.61401652 -11.74609375 15.9375 C-16.51725813 12.75672374 -21.07053142 12.53921492 -26.74609375 12.9375 C-29.9632232 14.29564007 -29.9632232 14.29564007 -32.74609375 15.9375 C-33.73609375 16.2675 -34.72609375 16.5975 -35.74609375 16.9375 C-40.44578188 26.43581707 -40.9731444 38.31227224 -38.02734375 48.3984375 C-36.22145903 52.5862219 -33.93766982 55.31657609 -29.8046875 57.31640625 C-24.51828259 58.91135574 -19.52952187 58.56500249 -14.37109375 56.75 C-10.25223591 53.90602673 -7.76618411 50.48270331 -5.74609375 45.9375 C0.45374512 46.26380731 5.30421106 49.42330963 10.25390625 52.9375 C10.58390625 53.5975 10.91390625 54.2575 11.25390625 54.9375 C7.85898213 63.50293617 2.89925211 70.18047063 -5.43359375 74.25 C-17.68204713 78.94089704 -30.24180115 77.9650012 -42.1796875 72.90625 C-51.50053252 68.25368655 -56.00044149 61.355453 -59.80078125 51.8671875 C-63.80992923 39.44214212 -62.96171301 24.75517028 -57.33984375 12.99609375 C-52.58783193 4.75852609 -46.22080437 -0.63074964 -37.30859375 -4 C-25.88093289 -6.91577401 -9.69009643 -7.27791026 0 0 Z " fill="#000000" transform="translate(542.74609375,110.0625)"/>
<path d="M0 0 C6.41488212 3.749388 10.94622117 9.2611096 13.265625 16.32421875 C17.07660061 33.70226753 17.07660061 33.70226753 13.265625 41.32421875 C-4.554375 41.32421875 -22.374375 41.32421875 -40.734375 41.32421875 C-38.18188844 55.02621508 -38.18188844 55.02621508 -29.484375 64.76171875 C-21.85992237 68.45892099 -13.6794845 67.60658716 -5.734375 65.32421875 C-0.78813932 62.80613513 1.51626445 59.97698276 4.265625 55.32421875 C8.69652971 56.53264731 11.24675256 57.8409044 14.265625 61.32421875 C8.78315024 70.24782128 3.63245425 76.27867815 -7.03515625 78.88671875 C-18.6989817 80.77723749 -31.01997241 79.59764428 -40.953125 72.83984375 C-48.59987947 66.33339477 -53.13104969 56.70259052 -53.94287109 46.77441406 C-54.03808457 43.99659859 -54.05643264 41.22858141 -54.046875 38.44921875 C-54.06298828 37.51980469 -54.07910156 36.59039062 -54.09570312 35.6328125 C-54.10350659 24.44264268 -50.81294467 14.23014929 -43.328125 5.7265625 C-32.29121507 -4.29863068 -13.35552845 -5.83792271 0 0 Z M-35.109375 14.32421875 C-38.67206072 19.27418165 -38.67206072 19.27418165 -40.734375 30.32421875 C-26.544375 30.32421875 -12.354375 30.32421875 2.265625 30.32421875 C1.48082127 19.45037524 1.48082127 19.45037524 -4.546875 11.57421875 C-14.32991927 4.66854044 -26.62671042 5.75777476 -35.109375 14.32421875 Z " fill="#000000" transform="translate(790.734375,107.67578125)"/>
<path d="M0 0 C0.76892578 -0.020625 1.53785156 -0.04125 2.33007812 -0.0625 C7.87607695 -0.09994134 12.15148437 0.96664267 17.1875 3.25 C17.95707031 3.56195313 18.72664063 3.87390625 19.51953125 4.1953125 C21.64827128 5.54135421 22.58690466 6.97140211 23.875 9.125 C24.29136719 9.80304688 24.70773437 10.48109375 25.13671875 11.1796875 C26.9757382 14.80303438 27.31771316 18.12319982 27.37695312 22.15454102 C27.39367065 23.12557266 27.41038818 24.09660431 27.4276123 25.09706116 C27.44118774 26.13882004 27.45476318 27.18057892 27.46875 28.25390625 C27.49636414 29.86615334 27.49636414 29.86615334 27.52453613 31.51097107 C27.60318442 36.1099965 27.67101049 40.70916704 27.73974609 45.30834961 C27.79145315 48.66527581 27.84870389 52.02207591 27.90625 55.37890625 C27.91982544 56.42268936 27.93340088 57.46647247 27.9473877 58.54188538 C27.96410522 59.50976486 27.98082275 60.47764435 27.99804688 61.47485352 C28.01057495 62.3266066 28.02310303 63.17835968 28.03601074 64.05592346 C28.10789001 66.42805462 28.10789001 66.42805462 29.1875 69.25 C31.8275 69.58 34.4675 69.91 37.1875 70.25 C38.1775 74.705 38.1775 74.705 39.1875 79.25 C34.26946733 81.70901633 30.59157515 81.8202352 25.1875 81.25 C21.38739309 79.63293323 19.4332218 77.67205227 17.1875 74.25 C16.5275 73.26 15.8675 72.27 15.1875 71.25 C14.83558594 71.72050781 14.48367188 72.19101563 14.12109375 72.67578125 C9.30148388 78.75377489 4.87247698 80.94264445 -2.8125 82.25 C-10.79064566 82.93835486 -17.85119251 82.4862405 -24.8125 78.25 C-29.73907629 73.93669047 -32.51416493 69.34782814 -33.1484375 62.76171875 C-33.29603367 48.31205414 -33.29603367 48.31205414 -28.8125 43.25 C-22.1837767 37.46975328 -14.85470235 35.10948073 -6.41796875 33.2890625 C-5.62189209 33.11713379 -4.82581543 32.94520508 -4.00561523 32.76806641 C-2.40456664 32.42856155 -0.80121438 32.09970596 0.80444336 31.78271484 C5.11860172 30.89051373 8.58353678 29.93571206 12.1875 27.25 C13.9174548 24.34053057 14.19413338 22.5750358 14.125 19.1875 C12.88851402 15.31317727 11.73107549 14.24326121 8.1875 12.25 C1.07011119 10.32676081 -6.4958744 11.17216666 -13.1171875 14.359375 C-16.8871219 16.59647893 -19.20240876 18.72637682 -21.8125 22.25 C-23.1325 22.25 -24.4525 22.25 -25.8125 22.25 C-27.296875 20.71875 -27.296875 20.71875 -28.5625 18.75 C-28.99046875 18.1003125 -29.4184375 17.450625 -29.859375 16.78125 C-30.17390625 16.2759375 -30.4884375 15.770625 -30.8125 15.25 C-27.88762629 8.66193494 -22.09614371 5.1052356 -15.8046875 2.01171875 C-10.63658838 0.03568085 -5.45997039 0.03606917 0 0 Z M9.5 40.0625 C4.99272301 41.73948948 0.59597955 42.84289034 -4.125 43.75 C-10.511761 45.04272515 -14.08042532 46.42371585 -18.625 51.125 C-20.86486347 55.13317674 -20.95927482 58.32042615 -20.25 62.8125 C-18.28752597 67.50537267 -15.67754667 70.04852882 -10.875 72.0625 C-3.86806541 72.69949405 2.33201801 72.45421814 7.921875 67.80859375 C15.24501791 59.99603287 15.50422854 51.44585363 15.29296875 41.21484375 C15.25816406 40.23644531 15.22335937 39.25804687 15.1875 38.25 C13.23277254 38.25 11.28992487 39.36482126 9.5 40.0625 Z " fill="#000000" transform="translate(1133.8125,104.75)"/>
<path d="M0 0 C9.42298366 6.54449297 13.96294255 14.3290481 16.3125 25.4375 C18.4902912 40.01833063 16.96039207 53.62011299 8.65625 66.00390625 C3.61513175 72.48734445 -3.45543677 76.26078172 -11.48828125 77.71875 C-23.77041827 79.09404373 -35.09397053 77.87785533 -45 70 C-53.86281257 61.60905014 -56.95847368 51.46676875 -57.28564453 39.55419922 C-57.42600387 27.18471352 -55.8717368 16.01857411 -48 6 C-36.35404025 -5.85027483 -14.32585868 -8.41359954 0 0 Z M-37.8125 13.5 C-44.83532674 22.3346519 -44.69782928 33.17752489 -44 44 C-43.10193502 50.96277536 -40.50270073 58.33496783 -34.9375 62.875 C-28.82171203 66.73003729 -21.72586332 67.55159387 -14.6875 66.375 C-8.05507413 64.70639919 -3.76515404 61.50053802 -0.03125 55.83984375 C5.62828122 45.74272556 4.3922282 32.83692445 2 22 C-0.01526745 15.36333389 -3.9943555 11.38990481 -10 8 C-19.60143824 4.72678242 -30.68302694 6.25170239 -37.8125 13.5 Z " fill="#000000" transform="translate(1009,109)"/>
<path d="M0 0 C8.70578187 5.10147727 13.20932413 12.15415093 16.13671875 21.7109375 C19.16978501 34.73944057 18.41058632 50.71385325 11.609375 62.38671875 C6.14132694 70.17149244 -1.15498676 75.30270471 -10.39453125 77.59375 C-22.21487663 79.43680235 -34.10766913 77.98435305 -43.9296875 70.85546875 C-52.84077346 62.86911812 -55.75674043 53.24154291 -56.8125 41.6875 C-57.43497548 28.82300674 -55.66706955 16.25849157 -47.25 6.125 C-43.5852173 2.26267325 -39.98142348 -0.17221534 -35 -2 C-34.10925781 -2.35449219 -33.21851563 -2.70898438 -32.30078125 -3.07421875 C-22.02541667 -5.95618491 -9.3575174 -5.13746053 0 0 Z M-38 14 C-42.61151739 21.39084941 -43.19946319 28.2092786 -43.25 36.75 C-43.270625 37.6059375 -43.29125 38.461875 -43.3125 39.34375 C-43.36432102 47.89421856 -41.6172821 55.22803974 -35.6640625 61.5625 C-31.0079271 65.58470147 -25.04729696 66.98912357 -19 67 C-12.44801168 66.43339724 -6.54250691 64.99329004 -2 60 C4.69261326 49.43088608 5.18397944 37.92872566 3.57421875 25.7890625 C1.74039281 17.75622987 -2.2044608 12.42914509 -9.125 8 C-19.18376649 4.4953619 -30.48637017 6.48637017 -38 14 Z " fill="#000000" transform="translate(1337,109)"/>
<path d="M0 0 C6.07759471 6.35384902 7.88228403 14.15663223 7.86352539 22.7668457 C7.86341209 24.50808464 7.86341209 24.50808464 7.86329651 26.28450012 C7.85813522 27.52737289 7.85297394 28.77024567 7.84765625 30.05078125 C7.8462413 31.33107712 7.84482635 32.61137299 7.84336853 33.9304657 C7.83956397 37.3219704 7.82975143 40.71343177 7.81866455 44.10491943 C7.80840597 47.57059137 7.80386141 51.03627036 7.79882812 54.50195312 C7.78780755 61.2929899 7.77054722 68.08398563 7.75 74.875 C3.46 74.875 -0.83 74.875 -5.25 74.875 C-5.26458252 73.15466553 -5.27916504 71.43433105 -5.29418945 69.66186523 C-5.34597567 63.95804047 -5.41129744 58.25447649 -5.48571491 52.55090237 C-5.53031496 49.09507548 -5.56959312 45.63936366 -5.59643555 42.18334961 C-5.62758136 38.20401187 -5.68236658 34.22516351 -5.73828125 30.24609375 C-5.74467117 29.01354355 -5.7510611 27.78099335 -5.75764465 26.51109314 C-5.86423456 20.26095508 -6.03841327 15.32231392 -9.25 9.875 C-14.70628375 6.15480653 -20.39771294 5.35703666 -26.8125 6.5625 C-33.17379232 8.18527865 -37.60323294 11.40484941 -41.25 16.875 C-44.50906287 24.5938331 -44.4167453 33.03226667 -44.56640625 41.28125 C-44.58718735 42.2465564 -44.60796844 43.21186279 -44.62937927 44.2064209 C-44.69428962 47.26254787 -44.75348516 50.31875408 -44.8125 53.375 C-44.85574099 55.45834123 -44.89935698 57.54167471 -44.94335938 59.625 C-45.04991025 64.708254 -45.15133915 69.79158699 -45.25 74.875 C-49.21 74.875 -53.17 74.875 -57.25 74.875 C-57.25 48.805 -57.25 22.735 -57.25 -4.125 C-53.29 -4.125 -49.33 -4.125 -45.25 -4.125 C-44.92 -0.495 -44.59 3.135 -44.25 6.875 C-42.703125 4.9878125 -42.703125 4.9878125 -41.125 3.0625 C-31.04681741 -8.46124009 -12.14992926 -7.94418451 0 0 Z " fill="#000000" transform="translate(1433.25,110.125)"/>
<path d="M0 0 C0.84691406 -0.02449219 1.69382812 -0.04898438 2.56640625 -0.07421875 C10.46463721 -0.11050465 17.33557425 2.14660143 23.1875 7.625 C23.75597656 8.14578125 24.32445312 8.6665625 24.91015625 9.203125 C25.31105469 9.58984375 25.71195313 9.9765625 26.125 10.375 C24.87906918 14.21662002 23.79108297 16.4895859 20.125 18.375 C16.78121404 18.2892619 15.3840631 17.59205287 12.8125 15.4375 C7.62918783 11.45960926 1.54263843 10.90826266 -4.875 11.375 C-8.19471752 12.09427213 -10.91513977 12.73509318 -13.75 14.625 C-15.44273069 17.25813664 -15.75248748 19.25093078 -15.875 22.375 C-14.64327574 26.07017278 -13.72211304 27.85959581 -10.37109375 29.8984375 C-5.20036417 32.08227636 0.14015907 33.17578879 5.60546875 34.39257812 C14.73406907 36.53274315 21.78645134 39.38473803 27.125 47.375 C30.18194833 53.62784887 30.11845334 61.13224819 27.9375 67.6875 C25.01917658 74.35412873 19.99822965 77.21661558 13.72265625 80.359375 C2.6221447 84.69942463 -10.18203364 82.9516461 -20.875 78.375 C-26.28380316 75.35218379 -29.62005377 72.29423386 -31.875 66.375 C-29.895 64.065 -27.915 61.755 -25.875 59.375 C-20.99256726 59.79349423 -19.13237227 61.86706063 -15.875 65.375 C-11.13266361 69.64310275 -5.29195596 70.82136217 1.00390625 70.625 C6.05426332 70.02974613 10.63781377 68.95231873 14.1875 65.1875 C15.44009883 61.42970351 15.91180884 58.28520153 15.125 54.375 C10.72499308 47.20461836 1.01551446 46.38137914 -6.58984375 44.4140625 C-21.68399251 40.38680829 -21.68399251 40.38680829 -26.25 32.75 C-29.18665423 26.65079506 -30.0891966 20.77549596 -28.26171875 14.15234375 C-25.89131285 8.73278137 -22.064205 5.15082686 -16.875 2.375 C-11.19318857 0.31401996 -5.96710282 0.00900016 0 0 Z " fill="#000000" transform="translate(848.875,104.625)"/>
<path d="M0 0 C0 6.27 0 12.54 0 19 C8.25 19 16.5 19 25 19 C25 22.3 25 25.6 25 29 C16.75 29 8.5 29 0 29 C0.0739883 36.31463688 0.15681339 43.62804864 0.26245117 50.94213867 C0.29569657 53.43002978 0.32372966 55.91799624 0.34643555 58.40600586 C0.3799877 61.98323668 0.43230592 65.55977719 0.48828125 69.13671875 C0.49467117 70.24834885 0.5010611 71.35997894 0.50764465 72.5052948 C0.53733589 74.06634697 0.53733589 74.06634697 0.56762695 75.65893555 C0.57873001 76.5716069 0.58983307 77.48427826 0.60127258 78.42460632 C1.09009806 81.58194635 2.08496074 83.45350895 4 86 C8.95205632 88.04912675 11.70787705 88.36801268 16.75 86.5625 C17.46671875 86.25441406 18.1834375 85.94632812 18.921875 85.62890625 C21.44766654 84.86452197 22.61539381 84.85821822 25 86 C26.046875 88.06640625 26.046875 88.06640625 26.75 90.5625 C26.99234375 91.38878906 27.2346875 92.21507812 27.484375 93.06640625 C27.65453125 93.70449219 27.8246875 94.34257812 28 95 C26.77493102 95.65357278 25.54470484 96.29748233 24.3125 96.9375 C23.28576172 97.47697266 23.28576172 97.47697266 22.23828125 98.02734375 C14.83991513 101.24234054 6.04621557 101.05800512 -1.4375 98.3125 C-6.23839188 96.11715545 -8.82585872 93.99075882 -10.79853821 88.9659729 C-13.05855377 82.0954302 -13.39557197 75.84360907 -13.29296875 68.6484375 C-13.28872391 67.50839264 -13.28447906 66.36834778 -13.28010559 65.1937561 C-13.26344334 61.58725387 -13.22581395 57.98133057 -13.1875 54.375 C-13.17243709 51.91537271 -13.15875151 49.45573657 -13.14648438 46.99609375 C-13.11358057 40.99717608 -13.06188465 34.99868586 -13 29 C-17.29 29 -21.58 29 -26 29 C-26 25.7 -26 22.4 -26 19 C-21.71 19 -17.42 19 -13 19 C-13 13.39 -13 7.78 -13 2 C-2.25 0 -2.25 0 0 0 Z " fill="#000000" transform="translate(1203,87)"/>
<path d="M0 0 C0 6.27 0 12.54 0 19 C8.58 19 17.16 19 26 19 C26 22.3 26 25.6 26 29 C17.42 29 8.84 29 0 29 C0.09716435 35.8321882 0.20004085 42.66380229 0.31738281 49.49560547 C0.35555792 51.817493 0.39043038 54.13943735 0.421875 56.46142578 C0.46777501 59.80782315 0.52572829 63.15383315 0.5859375 66.5 C0.59748871 67.5305249 0.60903992 68.5610498 0.62094116 69.62280273 C0.73810444 75.40388698 1.35281446 80.45158553 3 86 C9.47410083 87.94822479 13.55483339 88.04096943 20 86 C21.66394675 85.65334443 23.32943851 85.31323028 25 85 C27.97759434 91.19339623 27.97759434 91.19339623 28.0625 94.25 C25.9173711 97.78315348 22.08266787 98.72933303 18.25 99.6875 C10.51130143 100.43160563 3.03554551 100.82044919 -4 97 C-8.36108358 93.30195054 -10.58257997 89.53646257 -12 84 C-12.27501248 79.79315988 -12.23242703 75.59703182 -12.1953125 71.3828125 C-12.1924826 70.17051971 -12.18965271 68.95822693 -12.18673706 67.709198 C-12.17556667 63.84769711 -12.15046737 59.98643047 -12.125 56.125 C-12.11496616 53.50260752 -12.10584102 50.8802114 -12.09765625 48.2578125 C-12.07563754 41.83845178 -12.04112886 35.41926558 -12 29 C-16.62 29 -21.24 29 -26 29 C-26 25.7 -26 22.4 -26 19 C-21.38 19 -16.76 19 -12 19 C-12 13.39 -12 7.78 -12 2 C-1.125 0 -1.125 0 0 0 Z " fill="#000000" transform="translate(914,87)"/>
<path d="M0 0 C0.92941406 0.07863281 1.85882812 0.15726562 2.81640625 0.23828125 C5.38922441 0.67922624 7.18948777 1.39158706 9.4375 2.6875 C8.96949289 6.74356165 8.55796792 10.15338679 6.4375 13.6875 C5.633125 13.5225 4.82875 13.3575 4 13.1875 C-3.23192223 12.17249337 -9.00851812 11.96072599 -15.5625 15.6875 C-21.2118432 20.8660646 -22.6519389 28.93263965 -22.99487305 36.32080078 C-23.03567109 38.34123257 -23.06156167 40.36200848 -23.07421875 42.3828125 C-23.09216995 43.45626923 -23.11012115 44.52972595 -23.12861633 45.63571167 C-23.18233039 49.02793577 -23.21648988 52.42002235 -23.25 55.8125 C-23.28320741 58.12762315 -23.31770018 60.44272823 -23.35351562 62.7578125 C-23.43803438 68.40094179 -23.50503024 74.04403306 -23.5625 79.6875 C-27.8525 79.6875 -32.1425 79.6875 -36.5625 79.6875 C-36.5625 53.6175 -36.5625 27.5475 -36.5625 0.6875 C-32.6025 0.6875 -28.6425 0.6875 -24.5625 0.6875 C-24.2325 4.3175 -23.9025 7.9475 -23.5625 11.6875 C-22.9025 10.615 -22.2425 9.5425 -21.5625 8.4375 C-18.13715847 3.63034456 -13.7894995 1.52179743 -8.16015625 0.06640625 C-5.32416219 -0.34726506 -2.85145162 -0.26571246 0 0 Z " fill="#000000" transform="translate(1083.5625,105.3125)"/>
<path d="M0 0 C6.70330455 5.61091418 11.23175685 11.88516032 12.03515625 20.78515625 C12.07477171 32.55094711 10.6394477 39.63159956 2.31640625 48.27734375 C-4.2351479 53.79809361 -11.87214458 55.16998349 -20.27734375 54.83203125 C-28.09702615 53.84051597 -34.51682366 51.3137488 -39.83203125 45.38671875 C-46.26524054 36.70977433 -47.08512432 28.07149478 -46.265625 17.453125 C-44.45181787 10.07770444 -39.55886633 3.27719629 -33.2109375 -0.8984375 C-23.08162697 -6.21154755 -9.69190951 -6.61723477 0 0 Z M-32.140625 7.078125 C-36.68176842 12.15352058 -39.02352299 18.67426863 -39.265625 25.453125 C-38.429056 32.66048869 -36.16611738 38.62896136 -30.890625 43.765625 C-24.95361903 47.58227169 -19.17396319 48.15492444 -12.265625 47.453125 C-6.01569726 45.5064262 -2.52198456 42.37803554 1.421875 37.265625 C4.99568222 29.60746667 5.13591312 23.19349992 2.7890625 15.09375 C1.40805308 11.63611159 -0.30733424 9.68988143 -3.265625 7.453125 C-3.86375 6.89625 -4.461875 6.339375 -5.078125 5.765625 C-13.75616744 0.55879953 -23.67416182 2.29273277 -32.140625 7.078125 Z " fill="#000000" transform="translate(1505.265625,83.546875)"/>
<path d="M0 0 C4.29 0 8.58 0 13 0 C13 26.07 13 52.14 13 79 C8.71 79 4.42 79 0 79 C0 52.93 0 26.86 0 0 Z " fill="#000000" transform="translate(1246,106)"/>
<path d="M0 0 C2.701875 -0.061875 5.40375 -0.12375 8.1875 -0.1875 C9.02949951 -0.21481201 9.87149902 -0.24212402 10.73901367 -0.27026367 C15.31952096 -0.32089807 18.28298447 0.01917007 22 3 C23.55024464 6.10048928 23.28992015 8.57894218 23 12 C21 14.9375 21 14.9375 19 17 C19.27714844 17.50789063 19.55429688 18.01578125 19.83984375 18.5390625 C22.0334683 22.7077298 23.52413155 26.24131553 24 31 C21.36 31 18.72 31 16 31 C15.85304688 30.31292969 15.70609375 29.62585938 15.5546875 28.91796875 C14.19179834 22.92394872 14.19179834 22.92394872 9.8125 18.875 C8.884375 18.58625 7.95625 18.2975 7 18 C7 22.29 7 26.58 7 31 C4.69 31 2.38 31 0 31 C0 20.77 0 10.54 0 0 Z M7 6 C7 8.31 7 10.62 7 13 C10.41656024 13.16677282 10.41656024 13.16677282 14 13 C14.66 12.34 15.32 11.68 16 11 C15.67958603 8.39719432 15.67958603 8.39719432 15 6 C12.36 6 9.72 6 7 6 Z " fill="#000000" transform="translate(1477,93)"/>
<path d="M0 0 C2.125 0.421875 2.125 0.421875 4.625 2.109375 C6.34481795 4.760761 7.04952532 6.25193856 7.125 9.421875 C5.8821597 12.94325586 5.0138822 14.86932661 1.8125 16.859375 C-1.46343537 17.54503589 -3.65828314 17.33094716 -6.875 16.421875 C-8.86801736 14.84120606 -9.74043351 13.69100798 -10.875 11.421875 C-11.27691848 7.80460864 -11.07608852 5.82405204 -9.4375 2.546875 C-6.1736573 -0.15972626 -4.14337395 -0.24533135 0 0 Z " fill="#000000" transform="translate(1254.875,74.578125)"/>
</svg>
